# xmcd
#
# Track frame offsets: 
#        150
#        12652
#        28980
#        46612
#        57234
#        69555
#        85663
#        101824
#        118768
#        135043
#
# Disc length: 1949 seconds
#
# Revision: 0
# Processed by: cddbd v1.4PL0 Copyright (c) Steve Scherf et al.
# Submitted via: ExactAudioCopy v0.90b4
#
DISCID=7f079b0a
DTITLE=R.B. Stone - American Music
DYEAR=1998
DGENRE=Country
TTITLE0=Cabin Fever
TTITLE1=Turn Right Here
TTITLE2=Mr. Pain
TTITLE3=It's Safe To Say
TTITLE4=Christina
TTITLE5=Tell Me A Lie
TTITLE6=Head Over Heals
TTITLE7=A PhD in Pain
TTITLE8=Lonesome Texas Time
TTITLE9=Forever Love
EXTD=
EXTT0=
EXTT1=
EXTT2=
EXTT3=
EXTT4=
EXTT5=
EXTT6=
EXTT7=
EXTT8=
EXTT9=
PLAYORDER=
